<?xml version="1.0" encoding="UTF-8" standalone="no"?>
<!-- Created with Inkscape (http://www.inkscape.org/) -->

<svg
   xmlns:dc="http://purl.org/dc/elements/1.1/"
   xmlns:cc="http://creativecommons.org/ns#"
   xmlns:rdf="http://www.w3.org/1999/02/22-rdf-syntax-ns#"
   xmlns:svg="http://www.w3.org/2000/svg"
   xmlns="http://www.w3.org/2000/svg"
   xmlns:sodipodi="http://sodipodi.sourceforge.net/DTD/sodipodi-0.dtd"
   xmlns:inkscape="http://www.inkscape.org/namespaces/inkscape"
   width="500"
   height="616"
   viewBox="0 0 500.00001 616.00001"
   id="svg2"
   version="1.1"
   inkscape:version="0.91 r13725"
   sodipodi:docname="SCO Angers.svg">
  <defs
     id="defs4" />
  <sodipodi:namedview
     id="base"
     pagecolor="#ffffff"
     bordercolor="#666666"
     borderopacity="1.0"
     inkscape:pageopacity="0.0"
     inkscape:pageshadow="2"
     inkscape:zoom="3.959798"
     inkscape:cx="255.16865"
     inkscape:cy="127.95823"
     inkscape:document-units="px"
     inkscape:current-layer="layer1"
     showgrid="false"
     inkscape:window-width="1280"
     inkscape:window-height="695"
     inkscape:window-x="0"
     inkscape:window-y="1"
     inkscape:window-maximized="1"
     units="px" />
  <metadata
     id="metadata7">
    <rdf:RDF>
      <cc:Work
         rdf:about="">
        <dc:format>image/svg+xml</dc:format>
        <dc:type
           rdf:resource="http://purl.org/dc/dcmitype/StillImage" />
        <dc:title />
      </cc:Work>
    </rdf:RDF>
  </metadata>
  <g
     inkscape:label="Calque 1"
     inkscape:groupmode="layer"
     id="layer1"
     transform="translate(0,-436.36216)">
    <g
       id="g4279"
       transform="matrix(1.6002247,0,0,1.6002247,-221.19609,-276.03504)">
      <path
         sodipodi:nodetypes="cccccc"
         inkscape:connector-curvature="0"
         id="path3401"
         d="m 211.12188,446.27068 168.69548,0 L 449.51788,555.3672 295.47,828.10834 139.40105,555.3672 Z"
         style="fill:#e4b953;fill-opacity:1;fill-rule:evenodd;stroke:#000000;stroke-width:2;stroke-linecap:butt;stroke-linejoin:miter;stroke-miterlimit:4;stroke-dasharray:none;stroke-opacity:1" />
      <path
         style="fill:#ffffff;fill-rule:evenodd;stroke:#000000;stroke-width:2;stroke-linecap:butt;stroke-linejoin:miter;stroke-miterlimit:4;stroke-dasharray:none;stroke-opacity:1"
         d="m 216.53053,458.67826 157.74684,0 56.7401,90.21694 -273.79605,0 z"
         id="path3405"
         inkscape:connector-curvature="0"
         sodipodi:nodetypes="ccccc" />
      <path
         sodipodi:nodetypes="cccc"
         inkscape:connector-curvature="0"
         id="path3407"
         d="M 432.21687,559.9282 295.39774,804.49653 156.54645,559.9282 Z"
         style="fill:#ffffff;fill-rule:evenodd;stroke:#000000;stroke-width:2;stroke-linecap:butt;stroke-linejoin:miter;stroke-miterlimit:4;stroke-dasharray:none;stroke-opacity:1" />
      <path
         sodipodi:nodetypes="ccccc"
         inkscape:connector-curvature="0"
         id="rect4209"
         d="m 215.64258,560.39258 0,103.625 47.52734,83.71289 0,-187.33789 z"
         style="opacity:1;fill:#e4b953;fill-opacity:1;stroke:#000000;stroke-width:1.95010757;stroke-linecap:round;stroke-linejoin:round;stroke-miterlimit:4;stroke-dasharray:none;stroke-dashoffset:0;stroke-opacity:1" />
      <path
         sodipodi:nodetypes="ccccc"
         inkscape:connector-curvature="0"
         style="opacity:1;fill:#e4b953;fill-opacity:1;stroke:#000000;stroke-width:1.95010757;stroke-linecap:round;stroke-linejoin:round;stroke-miterlimit:4;stroke-dasharray:none;stroke-dashoffset:0;stroke-opacity:1"
         d="m 373.67039,560.39258 0,103.625 -47.52734,84.96271 0,-188.58771 z"
         id="path4214" />
      <path
         id="path4216"
         d="m 221.22266,559.92773 0,113.91797 36.36718,64.05469 0,-177.97266 -36.36718,0 z"
         style="fill:#000000;fill-opacity:1;fill-rule:evenodd;stroke:none;stroke-width:0.928608px;stroke-linecap:butt;stroke-linejoin:miter;stroke-opacity:1"
         inkscape:connector-curvature="0" />
      <path
         inkscape:connector-curvature="0"
         style="fill:#000000;fill-opacity:1;fill-rule:evenodd;stroke:none;stroke-width:0.928608px;stroke-linecap:butt;stroke-linejoin:miter;stroke-opacity:1"
         d="m 368.09031,559.92773 0,113.91797 -36.36718,64.05469 0,-177.97266 36.36718,0 z"
         id="path4222" />
      <g
         transform="translate(369.00598,21.013687)"
         id="g4261">
        <path
           inkscape:connector-curvature="0"
           style="opacity:1;fill:#e4b953;fill-opacity:1;stroke:#000000;stroke-width:2;stroke-linecap:round;stroke-linejoin:round;stroke-miterlimit:4;stroke-dasharray:none;stroke-dashoffset:0;stroke-opacity:1"
           d="m -18.214844,456.02344 c -9.645402,0 -17.410156,8.82024 -17.410156,19.77734 l 0,18.12305 c 0,10.95711 7.764754,19.77734 17.410156,19.77734 9.6454023,0 17.4101565,-8.82023 17.4101565,-19.77734 l 0,-18.12305 c 0,-10.9571 -7.7647542,-19.77734 -17.4101565,-19.77734 z m 0.357422,8.69531 c 2.651183,0 4.785156,2.58389 4.785156,5.79297 l 0,27.6289 c 0,3.20907 -2.133973,5.79297 -4.785156,5.79297 -2.651184,0 -4.785156,-2.5839 -4.785156,-5.79297 l 0,-27.6289 c 0,-3.20908 2.133972,-5.79297 4.785156,-5.79297 z"
           id="rect4230" />
        <path
           id="path4235"
           d="m -69.772266,488.7912 0,9.34942 c 0,3.20907 -2.133973,5.79297 -4.785156,5.79297 -2.651184,0 -4.785156,-2.5839 -4.785156,-5.79297 l 0,-27.6289 c 0,-3.20908 2.133972,-5.79297 4.785156,-5.79297 2.651183,0 4.785156,2.58389 4.785156,5.79297 l 0,10.42191 12.267578,-4.3e-4 0,-5.13242 c 0,-10.9571 -7.764754,-19.77734 -17.410156,-19.77734 -9.645402,0 -17.410156,8.82024 -17.410156,19.77734 l 0,18.12305 c 0,10.95711 7.764754,19.77734 17.410156,19.77734 9.645402,0 17.410156,-8.82023 17.410156,-19.77734 l 0,-5.13263 z"
           style="opacity:1;fill:#e4b953;fill-opacity:1;stroke:#000000;stroke-width:2;stroke-linecap:round;stroke-linejoin:round;stroke-miterlimit:4;stroke-dasharray:none;stroke-dashoffset:0;stroke-opacity:1"
           inkscape:connector-curvature="0"
           sodipodi:nodetypes="cssssssccsssssscc" />
        <path
           style="fill:#e4b953;fill-opacity:1;fill-rule:evenodd;stroke:#000000;stroke-width:2;stroke-linecap:butt;stroke-linejoin:miter;stroke-miterlimit:4;stroke-dasharray:none;stroke-opacity:1"
           d="m -131.42773,456.10547 c -18.7711,-0.17849 -16.92706,15.20693 -16.92706,15.20693 0.2357,4.88535 -0.11398,10.18618 10.91583,16.83213 3.74213,2.2548 7.85572,3.39216 10.48388,6.67383 5.71014,11.02744 -12.84506,14.61043 -10.24219,-0.89648 l -10.47073,0 c 0,0 -1.82026,20.02734 14.75589,20.02734 18.7711,0.17849 18.50195,-17.52734 18.50195,-17.52734 0,0 -0.2595,-7.38301 -4.89298,-12.16007 -2.57046,-2.65012 -6.28892,-4.43925 -10.18927,-6.09195 -3.90832,-1.25519 -6.23886,-3.01997 -7.26074,-5.63262 -3.23494,-8.9763 10.57671,-11.49871 9.61055,0.89638 l 9.7706,0 c 0,0 2.5204,-17.32812 -14.05575,-17.32812 z"
           id="path4237"
           inkscape:connector-curvature="0"
           sodipodi:nodetypes="ccscccccscccccc" />
      </g>
      <path
         sodipodi:nodetypes="ccccc"
         inkscape:connector-curvature="0"
         id="rect4268"
         d="m 216.593,557.82648 4.627,0 0,3.64278 -4.627,0 z"
         style="opacity:1;fill:#e4b953;fill-opacity:1;stroke:none;stroke-width:2;stroke-linecap:round;stroke-linejoin:round;stroke-miterlimit:4;stroke-dasharray:none;stroke-dashoffset:0;stroke-opacity:1" />
      <path
         style="opacity:1;fill:#e4b953;fill-opacity:1;stroke:none;stroke-width:2;stroke-linecap:round;stroke-linejoin:round;stroke-miterlimit:4;stroke-dasharray:none;stroke-dashoffset:0;stroke-opacity:1"
         d="m 257.585,557.82648 4.627,0 0,3.64278 -4.627,0 z"
         id="path4273"
         inkscape:connector-curvature="0"
         sodipodi:nodetypes="ccccc" />
      <path
         sodipodi:nodetypes="ccccc"
         inkscape:connector-curvature="0"
         id="path4275"
         d="m 327.1,557.82648 4.627,0 0,3.64278 -4.627,0 z"
         style="opacity:1;fill:#e4b953;fill-opacity:1;stroke:none;stroke-width:2;stroke-linecap:round;stroke-linejoin:round;stroke-miterlimit:4;stroke-dasharray:none;stroke-dashoffset:0;stroke-opacity:1" />
      <path
         style="opacity:1;fill:#e4b953;fill-opacity:1;stroke:none;stroke-width:2;stroke-linecap:round;stroke-linejoin:round;stroke-miterlimit:4;stroke-dasharray:none;stroke-dashoffset:0;stroke-opacity:1"
         d="m 368.085,557.82648 4.612,0 0,3.64278 -4.617,0 z"
         id="path4277"
         inkscape:connector-curvature="0"
         sodipodi:nodetypes="ccccc" />
    </g>
  </g>
</svg>
